<svg width="45" height="29" viewBox="0 0 45 29" fill="none" xmlns="http://www.w3.org/2000/svg">
<path d="M44.3846 13.728C44.3747 13.5447 44.3036 13.3718 44.1848 13.2419C44.0661 13.1121 43.9079 13.0344 43.7403 13.0236C40.6948 12.828 38.2405 13.8586 37.1748 15.7823C36.4807 17.0323 36.4567 18.543 37.0913 19.9886C36.7824 20.4193 36.5448 20.9058 36.3893 21.4261L35.6655 20.6348C36.0766 19.5867 36.0331 18.503 35.5283 17.5917C34.729 16.1473 32.9087 15.3748 30.6596 15.5167C30.4919 15.5276 30.3337 15.6053 30.2149 15.7353C30.0961 15.8652 30.0251 16.0383 30.0153 16.2217C29.885 18.6805 30.5916 20.6705 31.9117 21.5442C32.3594 21.8425 32.8738 21.9998 33.3981 21.9986C33.8451 21.9946 34.2867 21.8911 34.6959 21.6942L36.1737 23.3123V24.7498C36.1737 24.9487 36.246 25.1395 36.3747 25.2802C36.5033 25.4208 36.6778 25.4998 36.8598 25.4998C37.0417 25.4998 37.2162 25.4208 37.3449 25.2802C37.4736 25.1395 37.5458 24.9487 37.5458 24.7498V22.9067C37.5444 22.2363 37.7341 21.582 38.0884 21.0348C38.6624 21.3321 39.2885 21.4897 39.9236 21.4967C40.6069 21.4984 41.2774 21.2938 41.8611 20.9055C43.6202 19.7405 44.5641 17.0573 44.3846 13.728ZM32.6223 20.2611C31.8682 19.7611 31.4114 18.5448 31.3743 17.003C32.7847 17.0436 33.8978 17.543 34.3546 18.3673C34.5332 18.685 34.6065 19.0601 34.5621 19.4298L33.9144 18.7192C33.7855 18.5783 33.6107 18.4992 33.4284 18.4992C33.2461 18.4992 33.0713 18.5783 32.9425 18.7192C32.8136 18.8601 32.7412 19.0512 32.7412 19.2505C32.7412 19.4497 32.8136 19.6408 32.9425 19.7817L33.5908 20.4905C33.2535 20.536 32.9121 20.4551 32.6223 20.2611ZM41.1504 19.6248C40.541 20.028 39.8355 20.1042 39.1032 19.8598L41.2328 17.5323C41.3616 17.3914 41.4341 17.2003 41.4341 17.0011C41.4341 16.8018 41.3616 16.6107 41.2328 16.4698C41.1039 16.3289 40.9291 16.2498 40.7468 16.2498C40.5645 16.2498 40.3897 16.3289 40.2609 16.4698L38.1313 18.7973C37.91 17.9998 37.9798 17.2255 38.3462 16.5623C39.0723 15.2498 40.7845 14.4998 42.9953 14.4998H43.0342C43.0422 16.9373 42.3562 18.8236 41.1504 19.6248Z" fill="black"/>
<path d="M7.94318 5.54545V23H5.82955V7.76136H5.72727L1.46591 10.5909V8.44318L5.82955 5.54545H7.94318ZM18.6562 23.2386C17.3722 23.2386 16.2784 22.8892 15.375 22.1903C14.4716 21.4858 13.7813 20.4659 13.304 19.1307C12.8267 17.7898 12.5881 16.1705 12.5881 14.2727C12.5881 12.3864 12.8267 10.7756 13.304 9.44034C13.7869 8.09943 14.4801 7.0767 15.3835 6.37216C16.2926 5.66193 17.3835 5.30682 18.6562 5.30682C19.929 5.30682 21.017 5.66193 21.9205 6.37216C22.8295 7.0767 23.5227 8.09943 24 9.44034C24.483 10.7756 24.7244 12.3864 24.7244 14.2727C24.7244 16.1705 24.4858 17.7898 24.0085 19.1307C23.5312 20.4659 22.8409 21.4858 21.9375 22.1903C21.0341 22.8892 19.9403 23.2386 18.6562 23.2386ZM18.6562 21.3636C19.929 21.3636 20.9176 20.75 21.6222 19.5227C22.3267 18.2955 22.679 16.5455 22.679 14.2727C22.679 12.7614 22.517 11.4744 22.1932 10.4119C21.875 9.34943 21.4148 8.53977 20.8125 7.98295C20.2159 7.42614 19.4972 7.14773 18.6562 7.14773C17.3949 7.14773 16.4091 7.76989 15.6989 9.0142C14.9886 10.2528 14.6335 12.0057 14.6335 14.2727C14.6335 15.7841 14.7926 17.0682 15.1108 18.125C15.429 19.1818 15.8864 19.9858 16.483 20.5369C17.0852 21.0881 17.8097 21.3636 18.6562 21.3636Z" fill="black"/>
</svg>
