<svg width="45" height="29" viewBox="0 0 45 29" fill="none" xmlns="http://www.w3.org/2000/svg">
<path d="M44.3846 11.728C44.3747 11.5447 44.3036 11.3718 44.1848 11.2419C44.0661 11.1121 43.9079 11.0344 43.7403 11.0236C40.6948 10.828 38.2405 11.8586 37.1748 13.7823C36.4807 15.0323 36.4567 16.543 37.0913 17.9886C36.7824 18.4193 36.5448 18.9058 36.3893 19.4261L35.6655 18.6348C36.0766 17.5867 36.0331 16.503 35.5283 15.5917C34.729 14.1473 32.9087 13.3748 30.6596 13.5167C30.4919 13.5276 30.3337 13.6053 30.2149 13.7353C30.0961 13.8652 30.0251 14.0383 30.0153 14.2217C29.885 16.6805 30.5916 18.6705 31.9117 19.5442C32.3594 19.8425 32.8738 19.9998 33.3981 19.9986C33.8451 19.9946 34.2867 19.8911 34.6959 19.6942L36.1737 21.3123V22.7498C36.1737 22.9487 36.246 23.1395 36.3747 23.2802C36.5033 23.4208 36.6778 23.4998 36.8598 23.4998C37.0417 23.4998 37.2162 23.4208 37.3449 23.2802C37.4736 23.1395 37.5458 22.9487 37.5458 22.7498V20.9067C37.5444 20.2363 37.7341 19.582 38.0884 19.0348C38.6624 19.3321 39.2885 19.4897 39.9236 19.4967C40.6069 19.4984 41.2774 19.2938 41.8611 18.9055C43.6202 17.7405 44.5641 15.0573 44.3846 11.728ZM32.6223 18.2611C31.8682 17.7611 31.4114 16.5448 31.3743 15.003C32.7847 15.0436 33.8978 15.543 34.3546 16.3673C34.5332 16.685 34.6065 17.0601 34.5621 17.4298L33.9144 16.7192C33.7855 16.5783 33.6107 16.4992 33.4284 16.4992C33.2461 16.4992 33.0713 16.5783 32.9425 16.7192C32.8136 16.8601 32.7412 17.0512 32.7412 17.2505C32.7412 17.4497 32.8136 17.6408 32.9425 17.7817L33.5908 18.4905C33.2535 18.536 32.9121 18.4551 32.6223 18.2611ZM41.1504 17.6248C40.541 18.028 39.8355 18.1042 39.1032 17.8598L41.2328 15.5323C41.3616 15.3914 41.4341 15.2003 41.4341 15.0011C41.4341 14.8018 41.3616 14.6107 41.2328 14.4698C41.1039 14.3289 40.9291 14.2498 40.7468 14.2498C40.5645 14.2498 40.3897 14.3289 40.2609 14.4698L38.1313 16.7973C37.91 15.9998 37.9798 15.2255 38.3462 14.5623C39.0723 13.2498 40.7845 12.4998 42.9953 12.4998H43.0342C43.0422 14.9373 42.3562 16.8236 41.1504 17.6248Z" fill="black"/>
<path d="M7.94318 5.54545V23H5.82955V7.76136H5.72727L1.46591 10.5909V8.44318L5.82955 5.54545H7.94318ZM18.4176 23.2386C17.4176 23.2386 16.517 23.0398 15.7159 22.642C14.9148 22.2443 14.2727 21.6989 13.7898 21.0057C13.3068 20.3125 13.0426 19.5227 12.9972 18.6364H15.0426C15.1222 19.4261 15.4801 20.0795 16.1165 20.5966C16.7585 21.108 17.5256 21.3636 18.4176 21.3636C19.1335 21.3636 19.7699 21.196 20.3267 20.8608C20.8892 20.5256 21.3295 20.0653 21.6477 19.4801C21.9716 18.8892 22.1335 18.2216 22.1335 17.4773C22.1335 16.7159 21.9659 16.0369 21.6307 15.4403C21.3011 14.8381 20.8466 14.3636 20.267 14.017C19.6875 13.6705 19.0256 13.4943 18.2812 13.4886C17.7472 13.483 17.1989 13.5653 16.6364 13.7358C16.0739 13.9006 15.6108 14.1136 15.2472 14.375L13.2699 14.1364L14.3267 5.54545H23.3949V7.42045H16.0994L15.4858 12.5682H15.5881C15.946 12.2841 16.3949 12.0483 16.9347 11.8608C17.4744 11.6733 18.0369 11.5795 18.6222 11.5795C19.6903 11.5795 20.642 11.8352 21.4773 12.3466C22.3182 12.8523 22.9773 13.5455 23.4545 14.4261C23.9375 15.3068 24.179 16.3125 24.179 17.4432C24.179 18.5568 23.929 19.5511 23.429 20.4261C22.9347 21.2955 22.2528 21.983 21.3835 22.4886C20.5142 22.9886 19.5256 23.2386 18.4176 23.2386Z" fill="black"/>
</svg>
