<svg width="45" height="29" viewBox="0 0 45 29" fill="none" xmlns="http://www.w3.org/2000/svg">
<path d="M44.3846 11.728C44.3747 11.5447 44.3036 11.3718 44.1848 11.2419C44.0661 11.1121 43.9079 11.0344 43.7403 11.0236C40.6948 10.828 38.2405 11.8586 37.1748 13.7823C36.4807 15.0323 36.4567 16.543 37.0913 17.9886C36.7824 18.4193 36.5448 18.9058 36.3893 19.4261L35.6655 18.6348C36.0766 17.5867 36.0331 16.503 35.5283 15.5917C34.729 14.1473 32.9087 13.3748 30.6596 13.5167C30.4919 13.5276 30.3337 13.6053 30.2149 13.7353C30.0961 13.8652 30.0251 14.0383 30.0153 14.2217C29.885 16.6805 30.5916 18.6705 31.9117 19.5442C32.3594 19.8425 32.8738 19.9998 33.3981 19.9986C33.8451 19.9946 34.2867 19.8911 34.6959 19.6942L36.1737 21.3123V22.7498C36.1737 22.9487 36.246 23.1395 36.3747 23.2802C36.5033 23.4208 36.6778 23.4998 36.8598 23.4998C37.0417 23.4998 37.2162 23.4208 37.3449 23.2802C37.4736 23.1395 37.5458 22.9487 37.5458 22.7498V20.9067C37.5444 20.2363 37.7341 19.582 38.0884 19.0348C38.6624 19.3321 39.2885 19.4897 39.9236 19.4967C40.6069 19.4984 41.2774 19.2938 41.8611 18.9055C43.6202 17.7405 44.5641 15.0573 44.3846 11.728ZM32.6223 18.2611C31.8682 17.7611 31.4114 16.5448 31.3743 15.003C32.7847 15.0436 33.8978 15.543 34.3546 16.3673C34.5332 16.685 34.6065 17.0601 34.5621 17.4298L33.9144 16.7192C33.7855 16.5783 33.6107 16.4992 33.4284 16.4992C33.2461 16.4992 33.0713 16.5783 32.9425 16.7192C32.8136 16.8601 32.7412 17.0512 32.7412 17.2505C32.7412 17.4497 32.8136 17.6408 32.9425 17.7817L33.5908 18.4905C33.2535 18.536 32.9121 18.4551 32.6223 18.2611ZM41.1504 17.6248C40.541 18.028 39.8355 18.1042 39.1032 17.8598L41.2328 15.5323C41.3616 15.3914 41.4341 15.2003 41.4341 15.0011C41.4341 14.8018 41.3616 14.6107 41.2328 14.4698C41.1039 14.3289 40.9291 14.2498 40.7468 14.2498C40.5645 14.2498 40.3897 14.3289 40.2609 14.4698L38.1313 16.7973C37.91 15.9998 37.9798 15.2255 38.3462 14.5623C39.0723 13.2498 40.7845 12.4998 42.9953 12.4998H43.0342C43.0422 14.9373 42.3562 16.8236 41.1504 17.6248Z" fill="black"/>
<path d="M1.80682 23V21.4659L7.56818 15.1591C8.24432 14.4205 8.80114 13.7784 9.23864 13.233C9.67614 12.6818 10 12.1648 10.2102 11.6818C10.4261 11.1932 10.5341 10.6818 10.5341 10.1477C10.5341 9.53409 10.3864 9.00284 10.0909 8.55398C9.80114 8.10511 9.40341 7.75852 8.89773 7.5142C8.39205 7.26989 7.82386 7.14773 7.19318 7.14773C6.52273 7.14773 5.9375 7.28693 5.4375 7.56534C4.94318 7.83807 4.55966 8.22159 4.28693 8.71591C4.01989 9.21023 3.88636 9.78977 3.88636 10.4545H1.875C1.875 9.43182 2.1108 8.53409 2.58239 7.76136C3.05398 6.98864 3.69602 6.38636 4.50852 5.95454C5.3267 5.52273 6.24432 5.30682 7.26136 5.30682C8.28409 5.30682 9.19034 5.52273 9.98011 5.95454C10.7699 6.38636 11.3892 6.96875 11.8381 7.7017C12.2869 8.43466 12.5114 9.25 12.5114 10.1477C12.5114 10.7898 12.3949 11.4176 12.1619 12.0312C11.9347 12.6392 11.5369 13.3182 10.9688 14.0682C10.4062 14.8125 9.625 15.7216 8.625 16.7955L4.70455 20.9886V21.125H12.8182V23H1.80682ZM22.0312 23.2386C20.7472 23.2386 19.6534 22.8892 18.75 22.1903C17.8466 21.4858 17.1563 20.4659 16.679 19.1307C16.2017 17.7898 15.9631 16.1705 15.9631 14.2727C15.9631 12.3864 16.2017 10.7756 16.679 9.44034C17.1619 8.09943 17.8551 7.0767 18.7585 6.37216C19.6676 5.66193 20.7585 5.30682 22.0312 5.30682C23.304 5.30682 24.392 5.66193 25.2955 6.37216C26.2045 7.0767 26.8977 8.09943 27.375 9.44034C27.858 10.7756 28.0994 12.3864 28.0994 14.2727C28.0994 16.1705 27.8608 17.7898 27.3835 19.1307C26.9062 20.4659 26.2159 21.4858 25.3125 22.1903C24.4091 22.8892 23.3153 23.2386 22.0312 23.2386ZM22.0312 21.3636C23.304 21.3636 24.2926 20.75 24.9972 19.5227C25.7017 18.2955 26.054 16.5455 26.054 14.2727C26.054 12.7614 25.892 11.4744 25.5682 10.4119C25.25 9.34943 24.7898 8.53977 24.1875 7.98295C23.5909 7.42614 22.8722 7.14773 22.0312 7.14773C20.7699 7.14773 19.7841 7.76989 19.0739 9.0142C18.3636 10.2528 18.0085 12.0057 18.0085 14.2727C18.0085 15.7841 18.1676 17.0682 18.4858 18.125C18.804 19.1818 19.2614 19.9858 19.858 20.5369C20.4602 21.0881 21.1847 21.3636 22.0312 21.3636Z" fill="black"/>
</svg>
