<svg width="45" height="29" viewBox="0 0 45 29" fill="none" xmlns="http://www.w3.org/2000/svg">
<path d="M44.3846 12.728C44.3747 12.5447 44.3036 12.3718 44.1848 12.2419C44.0661 12.1121 43.9079 12.0344 43.7403 12.0236C40.6948 11.828 38.2405 12.8586 37.1748 14.7823C36.4807 16.0323 36.4567 17.543 37.0913 18.9886C36.7824 19.4193 36.5448 19.9058 36.3893 20.4261L35.6655 19.6348C36.0766 18.5867 36.0331 17.503 35.5283 16.5917C34.729 15.1473 32.9087 14.3748 30.6596 14.5167C30.4919 14.5276 30.3337 14.6053 30.2149 14.7353C30.0961 14.8652 30.0251 15.0383 30.0153 15.2217C29.885 17.6805 30.5916 19.6705 31.9117 20.5442C32.3594 20.8425 32.8738 20.9998 33.3981 20.9986C33.8451 20.9946 34.2867 20.8911 34.6959 20.6942L36.1737 22.3123V23.7498C36.1737 23.9487 36.246 24.1395 36.3747 24.2802C36.5033 24.4208 36.6778 24.4998 36.8598 24.4998C37.0417 24.4998 37.2162 24.4208 37.3449 24.2802C37.4736 24.1395 37.5458 23.9487 37.5458 23.7498V21.9067C37.5444 21.2363 37.7341 20.582 38.0884 20.0348C38.6624 20.3321 39.2885 20.4897 39.9236 20.4967C40.6069 20.4984 41.2774 20.2938 41.8611 19.9055C43.6202 18.7405 44.5641 16.0573 44.3846 12.728ZM32.6223 19.2611C31.8682 18.7611 31.4114 17.5448 31.3743 16.003C32.7847 16.0436 33.8978 16.543 34.3546 17.3673C34.5332 17.685 34.6065 18.0601 34.5621 18.4298L33.9144 17.7192C33.7855 17.5783 33.6107 17.4992 33.4284 17.4992C33.2461 17.4992 33.0713 17.5783 32.9425 17.7192C32.8136 17.8601 32.7412 18.0512 32.7412 18.2505C32.7412 18.4497 32.8136 18.6408 32.9425 18.7817L33.5908 19.4905C33.2535 19.536 32.9121 19.4551 32.6223 19.2611ZM41.1504 18.6248C40.541 19.028 39.8355 19.1042 39.1032 18.8598L41.2328 16.5323C41.3616 16.3914 41.4341 16.2003 41.4341 16.0011C41.4341 15.8018 41.3616 15.6107 41.2328 15.4698C41.1039 15.3289 40.9291 15.2498 40.7468 15.2498C40.5645 15.2498 40.3897 15.3289 40.2609 15.4698L38.1313 17.7973C37.91 16.9998 37.9798 16.2255 38.3462 15.5623C39.0723 14.2498 40.7845 13.4998 42.9953 13.4998H43.0342C43.0422 15.9373 42.3562 17.8236 41.1504 18.6248Z" fill="black"/>
<path d="M1.80682 23V21.4659L7.56818 15.1591C8.24432 14.4205 8.80114 13.7784 9.23864 13.233C9.67614 12.6818 10 12.1648 10.2102 11.6818C10.4261 11.1932 10.5341 10.6818 10.5341 10.1477C10.5341 9.53409 10.3864 9.00284 10.0909 8.55398C9.80114 8.10511 9.40341 7.75852 8.89773 7.5142C8.39205 7.26989 7.82386 7.14773 7.19318 7.14773C6.52273 7.14773 5.9375 7.28693 5.4375 7.56534C4.94318 7.83807 4.55966 8.22159 4.28693 8.71591C4.01989 9.21023 3.88636 9.78977 3.88636 10.4545H1.875C1.875 9.43182 2.1108 8.53409 2.58239 7.76136C3.05398 6.98864 3.69602 6.38636 4.50852 5.95454C5.3267 5.52273 6.24432 5.30682 7.26136 5.30682C8.28409 5.30682 9.19034 5.52273 9.98011 5.95454C10.7699 6.38636 11.3892 6.96875 11.8381 7.7017C12.2869 8.43466 12.5114 9.25 12.5114 10.1477C12.5114 10.7898 12.3949 11.4176 12.1619 12.0312C11.9347 12.6392 11.5369 13.3182 10.9688 14.0682C10.4062 14.8125 9.625 15.7216 8.625 16.7955L4.70455 20.9886V21.125H12.8182V23H1.80682ZM21.7926 23.2386C20.7926 23.2386 19.892 23.0398 19.0909 22.642C18.2898 22.2443 17.6477 21.6989 17.1648 21.0057C16.6818 20.3125 16.4176 19.5227 16.3722 18.6364H18.4176C18.4972 19.4261 18.8551 20.0795 19.4915 20.5966C20.1335 21.108 20.9006 21.3636 21.7926 21.3636C22.5085 21.3636 23.1449 21.196 23.7017 20.8608C24.2642 20.5256 24.7045 20.0653 25.0227 19.4801C25.3466 18.8892 25.5085 18.2216 25.5085 17.4773C25.5085 16.7159 25.3409 16.0369 25.0057 15.4403C24.6761 14.8381 24.2216 14.3636 23.642 14.017C23.0625 13.6705 22.4006 13.4943 21.6562 13.4886C21.1222 13.483 20.5739 13.5653 20.0114 13.7358C19.4489 13.9006 18.9858 14.1136 18.6222 14.375L16.6449 14.1364L17.7017 5.54545H26.7699V7.42045H19.4744L18.8608 12.5682H18.9631C19.321 12.2841 19.7699 12.0483 20.3097 11.8608C20.8494 11.6733 21.4119 11.5795 21.9972 11.5795C23.0653 11.5795 24.017 11.8352 24.8523 12.3466C25.6932 12.8523 26.3523 13.5455 26.8295 14.4261C27.3125 15.3068 27.554 16.3125 27.554 17.4432C27.554 18.5568 27.304 19.5511 26.804 20.4261C26.3097 21.2955 25.6278 21.983 24.7585 22.4886C23.8892 22.9886 22.9006 23.2386 21.7926 23.2386Z" fill="black"/>
</svg>
