<svg width="46" height="29" viewBox="0 0 46 29" fill="none" xmlns="http://www.w3.org/2000/svg">
<path d="M45.3846 12.728C45.3747 12.5447 45.3036 12.3718 45.1848 12.2419C45.0661 12.1121 44.9079 12.0344 44.7403 12.0236C41.6948 11.828 39.2405 12.8586 38.1748 14.7823C37.4807 16.0323 37.4567 17.543 38.0913 18.9886C37.7824 19.4193 37.5448 19.9058 37.3893 20.4261L36.6655 19.6348C37.0766 18.5867 37.0331 17.503 36.5283 16.5917C35.729 15.1473 33.9087 14.3748 31.6596 14.5167C31.4919 14.5276 31.3337 14.6053 31.2149 14.7353C31.0961 14.8652 31.0251 15.0383 31.0153 15.2217C30.885 17.6805 31.5916 19.6705 32.9117 20.5442C33.3594 20.8425 33.8738 20.9998 34.3981 20.9986C34.8451 20.9946 35.2867 20.8911 35.6959 20.6942L37.1737 22.3123V23.7498C37.1737 23.9487 37.246 24.1395 37.3747 24.2802C37.5033 24.4208 37.6778 24.4998 37.8598 24.4998C38.0417 24.4998 38.2162 24.4208 38.3449 24.2802C38.4736 24.1395 38.5458 23.9487 38.5458 23.7498V21.9067C38.5444 21.2363 38.7341 20.582 39.0884 20.0348C39.6624 20.3321 40.2885 20.4897 40.9236 20.4967C41.6069 20.4984 42.2774 20.2938 42.8611 19.9055C44.6202 18.7405 45.5641 16.0573 45.3846 12.728ZM33.6223 19.2611C32.8682 18.7611 32.4114 17.5448 32.3743 16.003C33.7847 16.0436 34.8978 16.543 35.3546 17.3673C35.5332 17.685 35.6065 18.0601 35.5621 18.4298L34.9144 17.7192C34.7855 17.5783 34.6107 17.4992 34.4284 17.4992C34.2461 17.4992 34.0713 17.5783 33.9425 17.7192C33.8136 17.8601 33.7412 18.0512 33.7412 18.2505C33.7412 18.4497 33.8136 18.6408 33.9425 18.7817L34.5908 19.4905C34.2535 19.536 33.9121 19.4551 33.6223 19.2611ZM42.1504 18.6248C41.541 19.028 40.8355 19.1042 40.1032 18.8598L42.2328 16.5323C42.3616 16.3914 42.4341 16.2003 42.4341 16.0011C42.4341 15.8018 42.3616 15.6107 42.2328 15.4698C42.1039 15.3289 41.9291 15.2498 41.7468 15.2498C41.5645 15.2498 41.3897 15.3289 41.2609 15.4698L39.1313 17.7973C38.91 16.9998 38.9798 16.2255 39.3462 15.5623C40.0723 14.2498 41.7845 13.4998 43.9953 13.4998H44.0342C44.0422 15.9373 43.3562 17.8236 42.1504 18.6248Z" fill="black"/>
<path d="M7.5 23.2386C6.21591 23.2386 5.12216 22.8892 4.21875 22.1903C3.31534 21.4858 2.625 20.4659 2.14773 19.1307C1.67045 17.7898 1.43182 16.1705 1.43182 14.2727C1.43182 12.3864 1.67045 10.7756 2.14773 9.44034C2.63068 8.09943 3.32386 7.0767 4.22727 6.37216C5.13636 5.66193 6.22727 5.30682 7.5 5.30682C8.77273 5.30682 9.8608 5.66193 10.7642 6.37216C11.6733 7.0767 12.3665 8.09943 12.8438 9.44034C13.3267 10.7756 13.5682 12.3864 13.5682 14.2727C13.5682 16.1705 13.3295 17.7898 12.8523 19.1307C12.375 20.4659 11.6847 21.4858 10.7812 22.1903C9.87784 22.8892 8.78409 23.2386 7.5 23.2386ZM7.5 21.3636C8.77273 21.3636 9.76136 20.75 10.4659 19.5227C11.1705 18.2955 11.5227 16.5455 11.5227 14.2727C11.5227 12.7614 11.3608 11.4744 11.0369 10.4119C10.7188 9.34943 10.2585 8.53977 9.65625 7.98295C9.05966 7.42614 8.34091 7.14773 7.5 7.14773C6.23864 7.14773 5.25284 7.76989 4.54261 9.0142C3.83239 10.2528 3.47727 12.0057 3.47727 14.2727C3.47727 15.7841 3.63636 17.0682 3.95455 18.125C4.27273 19.1818 4.73011 19.9858 5.3267 20.5369C5.92898 21.0881 6.65341 21.3636 7.5 21.3636ZM22.2614 23.2386C21.2614 23.2386 20.3608 23.0398 19.5597 22.642C18.7585 22.2443 18.1165 21.6989 17.6335 21.0057C17.1506 20.3125 16.8864 19.5227 16.8409 18.6364H18.8864C18.9659 19.4261 19.3239 20.0795 19.9602 20.5966C20.6023 21.108 21.3693 21.3636 22.2614 21.3636C22.9773 21.3636 23.6136 21.196 24.1705 20.8608C24.733 20.5256 25.1733 20.0653 25.4915 19.4801C25.8153 18.8892 25.9773 18.2216 25.9773 17.4773C25.9773 16.7159 25.8097 16.0369 25.4744 15.4403C25.1449 14.8381 24.6903 14.3636 24.1108 14.017C23.5313 13.6705 22.8693 13.4943 22.125 13.4886C21.5909 13.483 21.0426 13.5653 20.4801 13.7358C19.9176 13.9006 19.4545 14.1136 19.0909 14.375L17.1136 14.1364L18.1705 5.54545H27.2386V7.42045H19.9432L19.3295 12.5682H19.4318C19.7898 12.2841 20.2386 12.0483 20.7784 11.8608C21.3182 11.6733 21.8807 11.5795 22.4659 11.5795C23.5341 11.5795 24.4858 11.8352 25.321 12.3466C26.1619 12.8523 26.821 13.5455 27.2983 14.4261C27.7812 15.3068 28.0227 16.3125 28.0227 17.4432C28.0227 18.5568 27.7727 19.5511 27.2727 20.4261C26.7784 21.2955 26.0966 21.983 25.2273 22.4886C24.358 22.9886 23.3693 23.2386 22.2614 23.2386Z" fill="black"/>
</svg>
