<svg width="33" height="35" viewBox="0 0 33 35" fill="none" xmlns="http://www.w3.org/2000/svg">
<path d="M13.6317 3.95938C7.66959 -0.934115 2.42414 3.55172 3.32945 7.77311C0.600812 9.02552 -0.339206 11.6618 1.2308 13.9304C-1.1746 15.768 0.362629 17.6667 2.2918 18.5097C-1.79037 22.7423 3.14533 25.8052 6.50139 23.2171C8.41863 23.6004 11.8927 23.0913 12.3452 21.6233C13.5475 21.5469 14.6686 20.7511 15.4393 20.1512C15.9316 21.03 16.718 21.8408 17.5383 22.0873C18.8275 22.2033 19.2178 21.8905 19.9656 21.0857C21.4454 22.5606 25.1593 22.4885 26.8753 22.0283C33.9843 26.8436 34.6429 16.3436 30.2037 14.377C31.8946 11.7986 30.5123 7.93742 28.401 6.07781C30.0615 2.31411 26.0541 1.19318 24.0645 1.50722C20.3113 -1.99765 15.2875 1.3647 13.6316 3.95938H13.6317ZM20.799 1.53307C21.43 1.53307 21.9417 2.0713 21.9417 2.73514C21.9417 3.39899 21.43 3.93721 20.799 3.93721C20.1679 3.93721 19.6563 3.39906 19.6563 2.73514C19.6563 2.07122 20.1679 1.53307 20.799 1.53307ZM26.2617 3.57945C26.8928 3.57945 27.4044 4.11768 27.4044 4.78152C27.4044 5.44537 26.8928 5.98359 26.2617 5.98359C25.6306 5.98359 25.119 5.44544 25.119 4.78152C25.119 4.1176 25.6306 3.57945 26.2617 3.57945ZM8.37971 3.79049C9.01084 3.79049 9.52241 4.32864 9.52241 4.99256C9.52241 5.65648 9.01084 6.19463 8.37971 6.19463C7.74858 6.19463 7.237 5.65648 7.237 4.99256C7.237 4.32864 7.74858 3.79049 8.37971 3.79049ZM21.4338 5.91921C22.0649 5.91921 22.5765 6.45736 22.5765 7.12128C22.5765 7.7852 22.0649 8.32336 21.4338 8.32336C20.8026 8.32336 20.2911 7.7852 20.2911 7.12128C20.2911 6.45736 20.8027 5.91921 21.4338 5.91921ZM12.9505 6.19463C13.5817 6.19463 14.0932 6.73279 14.0932 7.39671C14.0932 8.06063 13.5817 8.59878 12.9505 8.59878C12.3194 8.59878 11.8078 8.06063 11.8078 7.39671C11.8078 6.73279 12.3194 6.19463 12.9505 6.19463ZM16.9695 8.26243C17.6006 8.26243 18.1122 8.80065 18.1122 9.4645C18.1122 10.1283 17.6006 10.6666 16.9695 10.6666C16.3384 10.6666 15.8268 10.1284 15.8268 9.4645C15.8268 8.80058 16.3384 8.26243 16.9695 8.26243ZM26.663 8.59878C27.2941 8.59878 27.8057 9.13693 27.8057 9.80085C27.8057 10.4648 27.2941 11.0029 26.663 11.0029C26.0319 11.0029 25.5203 10.4648 25.5203 9.80085C25.5203 9.13693 26.0319 8.59878 26.663 8.59878ZM5.34525 10.5807C5.97631 10.5807 6.48796 11.1189 6.48796 11.7828C6.48796 12.4466 5.97631 12.9848 5.34525 12.9848C4.7142 12.9848 4.20255 12.4467 4.20255 11.7828C4.20255 11.1189 4.71412 10.5807 5.34525 10.5807ZM19.7346 12.4804C20.3658 12.4804 20.8773 13.0186 20.8773 13.6825C20.8773 14.3464 20.3658 14.8846 19.7346 14.8846C19.1035 14.8846 18.5919 14.3464 18.5919 13.6825C18.5919 13.0186 19.1036 12.4804 19.7346 12.4804ZM13.8152 13.8819C14.4463 13.8819 14.9579 14.4201 14.9579 15.084C14.9579 15.7478 14.4463 16.286 13.8152 16.286C13.1841 16.286 12.6725 15.7479 12.6725 15.084C12.6725 14.42 13.1841 13.8819 13.8152 13.8819ZM25.806 13.4071C26.4371 13.4071 26.9487 13.9452 26.9487 14.6091C26.9487 15.2731 26.4371 15.8112 25.806 15.8112C25.1748 15.8112 24.6633 15.2731 24.6633 14.6091C24.6633 13.9452 25.1748 13.4071 25.806 13.4071ZM3.9173 14.2018C4.54836 14.2018 5.06001 14.74 5.06001 15.4039C5.06001 16.0677 4.54836 16.6059 3.9173 16.6059C3.28624 16.6059 2.7746 16.0678 2.7746 15.4039C2.7746 14.7399 3.28617 14.2018 3.9173 14.2018ZM9.52241 17.0133C10.1535 17.0133 10.6651 17.5514 10.6651 18.2154C10.6651 18.8793 10.1535 19.4174 9.52241 19.4174C8.89128 19.4174 8.37971 18.8793 8.37971 18.2154C8.37971 17.5514 8.89128 17.0133 9.52241 17.0133ZM24.9251 17.752C25.5562 17.752 26.0678 18.2901 26.0678 18.954C26.0678 19.618 25.5562 20.1561 24.9251 20.1561C24.294 20.1561 23.7824 19.618 23.7824 18.954C23.7824 18.2901 24.294 17.752 24.9251 17.752ZM18.6641 18.2154C19.2952 18.2154 19.8068 18.7535 19.8068 19.4174C19.8068 20.0814 19.2952 20.6195 18.6641 20.6195C18.0329 20.6195 17.5214 20.0814 17.5214 19.4174C17.5214 18.7535 18.0329 18.2154 18.6641 18.2154ZM30.3157 19.0884C30.9468 19.0884 31.4584 19.6265 31.4584 20.2905C31.4584 20.9544 30.9468 21.4925 30.3157 21.4925C29.6847 21.4925 29.173 20.9543 29.173 20.2905C29.173 19.6266 29.6846 19.0884 30.3157 19.0884ZM3.05734 20.5076C3.6884 20.5076 4.20005 21.0457 4.20005 21.7097C4.20005 22.3736 3.6884 22.9117 3.05734 22.9117C2.42628 22.9117 1.91464 22.3735 1.91464 21.7097C1.91464 21.0458 2.42621 20.5076 3.05734 20.5076ZM15.1366 22.0376C14.9292 22.1785 14.7146 22.3076 14.494 22.4241C14.7244 25.8292 15.0513 29.5408 14.189 33.0609C11.067 33.7954 9.75988 33.9107 7.32413 35L25.555 34.9771C23.6542 33.8685 21.5814 33.448 18.3213 32.9297C17.5048 29.9512 17.6043 26.5759 17.8507 23.5042C16.8184 23.4145 15.7541 22.7473 15.1366 22.0376Z" fill="black"/>
</svg>
