<svg width="37" height="33" viewBox="0 0 37 33" fill="none" xmlns="http://www.w3.org/2000/svg">
<path d="M25.7255 11.728C25.7147 11.5447 25.637 11.3718 25.5072 11.2419C25.3773 11.1121 25.2044 11.0344 25.0211 11.0236C21.6918 10.828 19.0086 11.8586 17.8436 13.7823C17.0849 15.0323 17.0586 16.543 17.7524 17.9886C17.4147 18.4193 17.1549 18.9058 16.9849 19.4261L16.1936 18.6348C16.643 17.5867 16.5955 16.503 16.0436 15.5917C15.1699 14.1473 13.1799 13.3748 10.7211 13.5167C10.5378 13.5276 10.3648 13.6053 10.2349 13.7353C10.1051 13.8652 10.0275 14.0383 10.0168 14.2217C9.87426 16.6805 10.6468 18.6705 12.0899 19.5442C12.5793 19.8425 13.1417 19.9998 13.7149 19.9986C14.2036 19.9946 14.6863 19.8911 15.1336 19.6942L16.7493 21.3123V22.7498C16.7493 22.9487 16.8283 23.1395 16.9689 23.2802C17.1096 23.4208 17.3003 23.4998 17.4993 23.4998C17.6982 23.4998 17.8889 23.4208 18.0296 23.2802C18.1702 23.1395 18.2493 22.9487 18.2493 22.7498V20.9067C18.2477 20.2363 18.455 19.582 18.8424 19.0348C19.4699 19.3321 20.1544 19.4897 20.8486 19.4967C21.5957 19.4984 22.3286 19.2938 22.9668 18.9055C24.8899 17.7405 25.9218 15.0573 25.7255 11.728ZM12.8668 18.2611C12.0424 17.7611 11.543 16.5448 11.5024 15.003C13.0443 15.0436 14.2611 15.543 14.7605 16.3673C14.9558 16.685 15.0359 17.0601 14.9874 17.4298L14.2793 16.7192C14.1384 16.5783 13.9473 16.4992 13.748 16.4992C13.5488 16.4992 13.3577 16.5783 13.2168 16.7192C13.0759 16.8601 12.9967 17.0512 12.9967 17.2505C12.9967 17.4497 13.0759 17.6408 13.2168 17.7817L13.9255 18.4905C13.5568 18.536 13.1836 18.4551 12.8668 18.2611ZM22.1899 17.6248C21.5236 18.028 20.7524 18.1042 19.9518 17.8598L22.2799 15.5323C22.4208 15.3914 22.4999 15.2003 22.4999 15.0011C22.4999 14.8018 22.4208 14.6107 22.2799 14.4698C22.139 14.3289 21.9479 14.2498 21.7486 14.2498C21.5494 14.2498 21.3583 14.3289 21.2174 14.4698L18.8893 16.7973C18.6474 15.9998 18.7236 15.2255 19.1243 14.5623C19.918 13.2498 21.7899 12.4998 24.2068 12.4998H24.2493C24.258 14.9373 23.508 16.8236 22.1899 17.6248Z" fill="black"/>
<ellipse opacity="0.2" cx="18.5" cy="16.5" rx="18.5" ry="16.5" fill="#ADC178"/>
</svg>
