<svg width="16" height="13" viewBox="0 0 16 13" fill="none" xmlns="http://www.w3.org/2000/svg">
<path d="M15.7255 0.727953C15.7147 0.544683 15.637 0.371756 15.5072 0.241938C15.3773 0.112119 15.2044 0.0344258 15.0211 0.0235781C11.6918 -0.172047 9.00864 0.858578 7.84364 2.78233C7.08489 4.03233 7.05864 5.54295 7.75239 6.98858C7.4147 7.41933 7.15495 7.90583 6.98489 8.42608L6.19364 7.63483C6.64301 6.5867 6.59551 5.50295 6.04364 4.5917C5.16989 3.14733 3.17989 2.37483 0.721137 2.5167C0.537765 2.52757 0.364756 2.60535 0.234923 2.7353C0.10509 2.86524 0.0274618 3.03832 0.0167617 3.2217C-0.125738 5.68045 0.646762 7.67045 2.08989 8.5442C2.57933 8.84252 3.1417 8.99976 3.71489 8.99858C4.20358 8.99464 4.68634 8.89107 5.13364 8.6942L6.74926 10.3123V11.7498C6.74926 11.9487 6.82828 12.1395 6.96893 12.2802C7.10958 12.4208 7.30035 12.4998 7.49926 12.4998C7.69817 12.4998 7.88894 12.4208 8.02959 12.2802C8.17024 12.1395 8.24926 11.9487 8.24926 11.7498V9.9067C8.24772 9.23628 8.45503 8.58202 8.84239 8.03483C9.46986 8.33208 10.1544 8.48966 10.8486 8.4967C11.5957 8.49842 12.3286 8.29382 12.9668 7.90545C14.8899 6.74045 15.9218 4.05733 15.7255 0.727953ZM2.86676 7.26108C2.04239 6.76108 1.54301 5.54483 1.50239 4.00295C3.04426 4.04358 4.26114 4.54295 4.76051 5.36733C4.9558 5.68498 5.0359 6.06012 4.98739 6.42983L4.27926 5.7192C4.13837 5.57831 3.94727 5.49915 3.74801 5.49915C3.54875 5.49915 3.35766 5.57831 3.21676 5.7192C3.07587 5.8601 2.99671 6.0512 2.99671 6.25045C2.99671 6.44971 3.07587 6.64081 3.21676 6.7817L3.92551 7.49045C3.55681 7.53598 3.18356 7.45511 2.86676 7.26108ZM12.1899 6.62483C11.5236 7.02795 10.7524 7.1042 9.95176 6.85983L12.2799 4.53233C12.4208 4.39143 12.4999 4.20034 12.4999 4.00108C12.4999 3.80182 12.4208 3.61072 12.2799 3.46983C12.139 3.32893 11.9479 3.24978 11.7486 3.24978C11.5494 3.24978 11.3583 3.32893 11.2174 3.46983L8.88926 5.79733C8.64739 4.99983 8.72364 4.22545 9.12426 3.56233C9.91801 2.24983 11.7899 1.49983 14.2068 1.49983H14.2493C14.258 3.93733 13.508 5.82358 12.1899 6.62483Z" fill="black"/>
</svg>
