<svg width="25" height="25" viewBox="0 0 25 25" fill="none" xmlns="http://www.w3.org/2000/svg">
<g clip-path="url(#clip0_3372_184)">
<path d="M16.5 2.42683C17.6339 3.40027 18.3814 4.74777 18.6071 6.22504H18.75C20.1708 6.22504 21.5334 6.78945 22.5381 7.79411C23.5427 8.79877 24.1071 10.1614 24.1071 11.5822C24.1071 13.003 23.5427 14.3656 22.5381 15.3703C21.5334 16.3749 20.1708 16.9393 18.75 16.9393H6.25C5.54649 16.9393 4.84986 16.8008 4.19991 16.5315C3.54995 16.2623 2.95938 15.8677 2.46192 15.3703C1.96447 14.8728 1.56986 14.2822 1.30064 13.6323C1.03142 12.9823 0.892853 12.2857 0.892853 11.5822C0.892853 10.8787 1.03142 10.1821 1.30064 9.5321C1.56986 8.88214 1.96447 8.29157 2.46192 7.79411C2.95938 7.29666 3.54995 6.90205 4.19991 6.63283C4.84986 6.36361 5.54649 6.22504 6.25 6.22504C6.41864 5.12266 6.87917 4.08548 7.58382 3.22109C8.28847 2.3567 9.21156 1.6966 10.2573 1.30926C11.3031 0.921923 12.4335 0.821454 13.5312 1.01828C14.6289 1.21511 15.6539 1.70205 16.5 2.42861" stroke="black" stroke-linecap="round" stroke-linejoin="round"/>
<path d="M9.67856 11.5823L12.3571 14.2608M12.3571 14.2608V24.0823M12.3571 14.2608L15.0357 11.5823" stroke="black" stroke-linecap="round" stroke-linejoin="round"/>
</g>
<defs>
<clipPath id="clip0_3372_184">
<rect width="25" height="25" fill="white"/>
</clipPath>
</defs>
</svg>
