<svg width="334" height="368" viewBox="0 0 334 368" fill="none" xmlns="http://www.w3.org/2000/svg">
<path fill-rule="evenodd" clip-rule="evenodd" d="M239.407 95.6471C246.209 92.452 252.848 89.334 259.247 86.4945L259.777 86.2636C276.062 79.168 301.023 68.2923 320.013 79.7338C337.828 92.6034 334.981 113.944 331.076 134.633C326.846 152.472 319.2 172.835 311.716 191.243C309.682 186.03 306.51 179.433 302.768 174.464C308.462 159.965 313.749 144.652 316.841 131.294C319.444 120.216 323.104 101.319 311.634 91.7889C302.09 85.3499 284.66 92.2777 272.093 97.2727C269.558 98.2804 267.221 99.2095 265.186 99.9342C258.83 102.744 252.125 105.937 245.142 109.263C221.559 120.493 194.79 133.241 167.489 137.891C167.245 133.004 167.57 127.954 168.14 122.823C191.836 117.989 216.548 106.383 239.407 95.6471ZM213.223 211.135C222.622 202.635 232.49 193.712 243.792 184.971C266.487 168.111 289.671 170.799 299.026 199.226C308.055 225.698 305.615 266.832 293.087 290.046C273.158 326.863 244.849 349.018 207.348 360.015C169.848 371.011 122.992 370.359 67.5142 359.852C33.0234 353.254 4.93448 315.297 0.631266 284.915C-1.51628 269.764 1.78639 257.709 10.9867 250.867C20.1951 244.025 37.4974 241.093 66.2127 249.645C114.288 263.981 145.607 259.094 170.905 244.432C186.123 235.641 199.148 223.863 213.223 211.135Z" fill="url(#paint0_radial_3472_214)"/>
<path d="M7.00003 0C14.2968 23.1735 14.8744 46.7542 16.306 68.9014C18.1363 97.0842 19.9348 122.66 37.9855 144.815C39.4497 146.688 45.2253 150.191 53.6853 152.472C62.1454 154.752 74.4849 156.138 86.3615 156.138C106.861 155.975 130.044 151.414 148.917 140.825C89.4526 118.506 49.0235 81.6081 39.0179 34.0719C69.7668 73.0555 96.7738 103.356 154.936 120.706C156.157 110.443 158.434 100.831 159.98 92.1156C162.583 77.454 162.908 66.8651 156.238 59.0455C144.687 45.6872 115.565 34.9435 83.1076 25.2668C57.4835 17.6509 30.0698 10.2876 7.00003 0Z" fill="url(#paint1_radial_3472_214)"/>
<defs>
<radialGradient id="paint0_radial_3472_214" cx="0" cy="0" r="1" gradientUnits="userSpaceOnUse" gradientTransform="translate(167 184) rotate(90) scale(184 167)">
<stop offset="0.221154" stop-color="#89391E"/>
<stop offset="0.639423" stop-color="#89391E"/>
<stop offset="1" stop-color="#230E08"/>
</radialGradient>
<radialGradient id="paint1_radial_3472_214" cx="0" cy="0" r="1" gradientUnits="userSpaceOnUse" gradientTransform="translate(167 184) rotate(90) scale(184 167)">
<stop offset="0.293269" stop-color="#2C8D14"/>
<stop offset="0.543269" stop-color="#2C8D14"/>
<stop offset="1" stop-color="#0C2705"/>
</radialGradient>
</defs>
</svg>
