<svg width="21" height="26" viewBox="0 0 21 26" fill="none" xmlns="http://www.w3.org/2000/svg">
<path d="M0.354749 0C0.813528 1.63725 0.849841 3.30328 0.939858 4.86802C1.05494 6.85919 1.25338 8.66621 2.38831 10.2315C2.48037 10.3639 2.84351 10.6114 3.37542 10.7725C3.90734 10.9336 4.59781 11.0315 5.34454 11.0315C6.63342 11.0199 8.09107 10.6977 9.27766 9.94954C5.5389 8.37272 2.99695 5.76578 2.36785 2.40725C4.30117 5.16152 5.99921 7.30232 9.65614 8.5281C9.73286 7.80299 9.87607 7.12392 9.97324 6.50815C10.1369 5.47228 10.1574 4.72415 9.73797 4.17168C9.0117 3.22789 7.18068 2.46883 5.13996 1.78515C3.52886 1.24707 1.80525 0.726836 0.354749 0ZM16.3 6.11107C14.5457 6.9858 12.505 8.2346 10.5716 8.67772C10.5358 9.04028 10.5154 9.39708 10.5307 9.74237C12.7556 9.31651 14.9242 7.92959 16.6734 7.06061C17.4354 6.75561 18.8726 5.93842 19.5938 6.48513C20.3149 7.15845 20.0848 8.49357 19.9211 9.27623C19.7268 10.22 19.3943 11.3019 19.0363 12.3263C19.2716 12.6773 19.471 13.1435 19.5989 13.5118C20.0694 12.2112 20.5502 10.7725 20.8162 9.51218C21.0617 8.05045 21.2407 6.54268 20.1206 5.63341C18.9135 4.81623 17.3229 5.61039 16.3 6.11107ZM15.3282 13.0687C13.5535 14.611 12.3413 16.2338 10.7455 17.2697C9.15491 18.3056 7.18579 18.6509 4.16307 17.638C2.35762 17.0338 1.26975 17.2409 0.690777 17.7243C0.112318 18.2077 -0.0953347 19.0595 0.0396904 20.1299C0.310252 22.2764 2.07632 24.9582 4.2449 25.4243C7.73305 26.1667 10.6791 26.2127 13.0369 25.4358C15.3947 24.6589 17.1746 23.0936 18.4277 20.4924C19.2153 18.8523 19.3687 15.9461 18.801 14.0758C18.2128 12.0673 16.7552 11.8774 15.3282 13.0687Z" fill="black"/>
</svg>
