<?xml version="1.0" encoding="UTF-8" standalone="no"?>
<!-- Created with Inkscape (http://www.inkscape.org/) -->

<svg
   version="1.1"
   id="svg9"
   width="880"
   height="880"
   viewBox="0 0 880 880"
   sodipodi:docname="banana-palm-publicdomainvectors.org.svg"
   inkscape:version="1.2 (dc2aedaf03, 2022-05-15)"
   xmlns:inkscape="http://www.inkscape.org/namespaces/inkscape"
   xmlns:sodipodi="http://sodipodi.sourceforge.net/DTD/sodipodi-0.dtd"
   xmlns="http://www.w3.org/2000/svg"
   xmlns:svg="http://www.w3.org/2000/svg">
  <defs
     id="defs13">
    <clipPath
       clipPathUnits="userSpaceOnUse"
       id="clipPath25">
      <path
         d="M 0,660 H 660 V 0 H 0 Z"
         id="path23" />
    </clipPath>
  </defs>
  <sodipodi:namedview
     id="namedview11"
     pagecolor="#ffffff"
     bordercolor="#000000"
     borderopacity="0.25"
     inkscape:showpageshadow="2"
     inkscape:pageopacity="0.0"
     inkscape:pagecheckerboard="0"
     inkscape:deskcolor="#d1d1d1"
     showgrid="false"
     inkscape:zoom="0.925"
     inkscape:cx="440"
     inkscape:cy="440"
     inkscape:window-width="1920"
     inkscape:window-height="1017"
     inkscape:window-x="-8"
     inkscape:window-y="-8"
     inkscape:window-maximized="1"
     inkscape:current-layer="g17">
    <inkscape:page
       x="0"
       y="0"
       id="page15"
       width="880"
       height="880" />
  </sodipodi:namedview>
  <g
     id="g17"
     inkscape:groupmode="layer"
     inkscape:label="Page 1"
     transform="matrix(1.3333333,0,0,-1.3333333,0,880)">
    <g
       id="g19">
      <g
         id="g21"
         clip-path="url(#clipPath25)">
        <g
           id="g27"
           transform="translate(361.5625,74.2539)">
          <path
             d="M 0,0 C 86.486,0 157.026,21.078 157.026,46.921 157.026,72.764 86.486,93.842 0,93.842 -86.489,93.842 -157.028,72.764 -157.028,46.921 -157.028,21.078 -86.489,0 0,0"
             style="fill:#eceaab;fill-opacity:1;fill-rule:evenodd;stroke:none"
             id="path29" />
        </g>
        <g
           id="g31"
           transform="translate(425.2783,544.6797)">
          <path
             d="m 0,0 c -4.035,-3.125 -8.071,-6.251 -12.105,-9.376 -4.498,-3.481 -9.051,-5.562 -14.309,-6.508 -8.731,-1.569 -15.964,-4.408 -23.617,-9.266 -5.948,-3.778 -12.489,-5.378 -19.701,-4.836 -0.267,0.019 -0.536,0.04 -0.802,0.06 8.258,14.913 16.513,29.827 24.771,44.74 C -30.508,9.877 -15.254,4.937 0,0"
             style="fill:#81a728;fill-opacity:1;fill-rule:evenodd;stroke:none"
             id="path33" />
        </g>
        <g
           id="g35"
           transform="translate(354.7441,514.7539)">
          <path
             d="m 0,0 c -18.467,-20.774 -19.669,-58.553 -18.866,-92.873 -3.748,2.156 -7.492,4.311 -11.239,6.467 -3.749,121.327 78.096,202.643 181.908,223.892 -4.82,-19.333 -17.895,-32.1 -27.969,-45.818 l -12.857,4.603 10.803,-7.479 c -1.616,-2.341 -3.13,-4.722 -4.478,-7.184 -3.27,-5.96 -6.604,-11.698 -10.043,-17.176 L 95.65,75 103.902,59.229 C 99.691,52.871 95.305,46.904 90.661,41.388 90.04,40.65 89.393,39.956 88.725,39.301 l -7.778,6.296 5.172,-8.571 C 76.459,29.529 63.19,28.521 50.406,26.001 L 43.1,34.648 47.48,25.392 C 43.916,24.605 40.413,23.652 37.066,22.353 24.038,17.296 17.265,-0.206 0,0"
             style="fill:#a3ce24;fill-opacity:1;fill-rule:evenodd;stroke:none"
             id="path37" />
        </g>
        <g
           id="g39"
           transform="translate(222.9141,510.7021)">
          <path
             d="m 0,0 c 4.395,-2.111 8.789,-4.221 13.183,-6.332 4.896,-2.349 9.636,-3.455 14.895,-3.447 8.726,0.014 16.189,-1.331 24.362,-4.389 6.354,-2.38 12.953,-2.745 19.89,-1.109 0.254,0.061 0.514,0.122 0.771,0.182 C 62.832,-3.26 36.297,24.526 26.026,36.361 11.929,29.559 14.097,6.803 0,0"
             style="fill:#a3ce24;fill-opacity:1;fill-rule:evenodd;stroke:none"
             id="path41" />
        </g>
        <g
           id="g43"
           transform="translate(296.0151,495.6069)">
          <path
             d="m 0,0 c 21.079,-15.37 27.912,-48.51 32.282,-78.918 3.321,2.502 6.639,5.004 9.961,7.506 C 27.692,36.239 -64.118,94.864 -168.288,96.97 c 4.214,-9.044 10.601,-15.893 17.477,-21.991 l 9.591,7.909 -7.924,-9.366 c 7.981,-6.88 16.431,-12.923 22.798,-20.323 1.632,-1.896 3.267,-3.76 4.911,-5.586 l 11.808,12.753 -9.902,-14.854 c 6.484,-7.075 13.088,-13.582 19.967,-19.367 l 8.704,13.263 -5.835,-15.621 c 0.76,-0.61 1.526,-1.213 2.293,-1.804 10.77,-8.308 25.324,-7.038 39.725,-7.108 l 4.481,14.524 -2.282,-14.546 c 4.427,-0.073 8.82,-0.323 13.066,-1.073 2.616,-0.463 5.072,-1.381 7.455,-2.535 l 3.032,8.77 -0.121,-10.302 C -20.343,4.819 -12.156,-2.139 0,0"
             style="fill:#badf3d;fill-opacity:1;fill-rule:evenodd;stroke:none"
             id="path45" />
        </g>
        <g
           id="g47"
           transform="translate(579.6133,458.2021)">
          <path
             d="m 0,0 c -10.292,-16.209 -26.565,-30.787 -45.851,-40.78 l -8.295,7.488 3.122,-10.015 c -12.135,-5.617 -25.301,-9.42 -38.82,-10.722 l -4.341,11.353 0.432,-11.659 c -13.969,-0.839 -28.235,1.026 -42.062,6.351 l 1.905,11.251 -4.939,-10.016 c -11.655,4.943 -22.949,12.401 -33.434,22.826 l 6.825,13.314 -9.874,-10.178 C -185.936,-9.475 -195.641,4.996 -203.946,23.147 -125.396,12.226 -62.18,-20.465 0,0"
             style="fill:#70932a;fill-opacity:1;fill-rule:evenodd;stroke:none"
             id="path49" />
        </g>
        <g
           id="g51"
           transform="translate(376.0742,499.0293)">
          <path
             d="m 0,0 c 68.678,2.057 128.676,-43.33 203.539,-40.827 -15.468,-19.726 -39.41,-29.957 -65.838,-32.625 l -2.072,12.47 -0.522,-12.704 c -10.042,-0.823 -20.409,-0.581 -30.781,0.634 l 1.586,14.886 -3.753,-14.619 c -15.692,2.041 -31.341,6.276 -45.83,12.352 l 2.977,13.215 -6.108,-11.865 c -10.215,4.525 -19.793,9.97 -28.339,16.21 l 4.105,15.048 -8.014,-12.091 c -8.423,6.648 -15.69,14.104 -21.357,22.236 -34.267,-7.899 -40.435,-50.435 -38.787,-102.599 -0.42,-2.293 -0.835,-4.588 -1.252,-6.881 -3.597,2.081 -7.192,4.163 -10.788,6.245 C -47.356,-62.413 -39.28,-1.177 0,0"
             style="fill:#81a728;fill-opacity:1;fill-rule:evenodd;stroke:none"
             id="path53" />
        </g>
        <g
           id="g55"
           transform="translate(85.8081,433.3643)">
          <path
             d="m 0,0 c 11.521,-18.143 30.533,-34.241 52.873,-44.157 l 2.662,5.989 0.33,-7.271 c 10.743,-4.445 22.195,-7.447 33.91,-8.584 l 1.732,8.66 1.553,-8.93 c 10.548,-0.702 21.273,0.129 31.855,2.829 l -3.181,23.384 7.722,-22.108 c 6.236,1.917 12.401,4.505 18.438,7.823 l -2.585,11.078 5.794,-9.243 c 7.4,4.427 14.575,10.009 21.408,16.837 l -15.316,16.805 19.678,-12.214 C 186.877,-8.046 196.046,5.881 203.948,23.147 131.027,7.534 62.181,-20.464 0,0"
             style="fill:#81a728;fill-opacity:1;fill-rule:evenodd;stroke:none"
             id="path57" />
        </g>
        <g
           id="g59"
           transform="translate(289.3491,474.1914)">
          <path
             d="m 0,0 c -68.68,2.057 -128.677,-43.329 -203.541,-40.827 15.623,-19.922 39.889,-30.167 66.63,-32.712 l -5.154,18.632 10.237,-19.011 c 9.245,-0.542 18.733,-0.205 28.22,0.946 l -3.11,10.245 6.635,-9.778 c 12.208,1.737 24.356,4.801 35.924,9.011 l -4.397,7.649 7.137,-6.629 c 10.537,4.034 20.547,9.028 29.624,14.85 l -13.301,13.987 18.873,-10.23 c 10.68,7.592 19.809,16.404 26.63,26.187 34.265,-7.899 40.434,-50.434 38.787,-102.599 0.42,-2.293 0.835,-4.587 1.252,-6.882 3.596,2.082 7.19,4.164 10.787,6.246 C 47.356,-62.413 39.279,-1.177 0,0"
             style="fill:#a3ce24;fill-opacity:1;fill-rule:evenodd;stroke:none"
             id="path61" />
        </g>
        <g
           id="g63"
           transform="translate(322.2217,325.0625)">
          <path
             d="M 0,0 -5.562,99.954 15.994,28.213 8.851,-34.794 Z"
             style="fill:#dbed83;fill-opacity:1;fill-rule:evenodd;stroke:none"
             id="path65" />
        </g>
        <g
           id="g67"
           transform="translate(323.6387,300.8799)">
          <path
             d="m 0,0 17.286,107.612 6.975,-151.14 -1.021,-4.031 -9.055,-40.26 z"
             style="fill:#c3e457;fill-opacity:1;fill-rule:evenodd;stroke:none"
             id="path69" />
        </g>
        <g
           id="g71"
           transform="translate(322.4941,225.9141)">
          <path
             d="M 0,0 -3.543,134.213 19.534,1.21 4.997,-47.423 Z"
             style="fill:#cacc4e;fill-opacity:1;fill-rule:evenodd;stroke:none"
             id="path73" />
        </g>
        <g
           id="g75"
           transform="translate(348.1367,204.1514)">
          <path
             d="m 0,0 c 1.215,36.77 5.293,76.169 7.726,113.254 l -30.342,-127.359 7.425,-43.53 z"
             style="fill:#b8ab42;fill-opacity:1;fill-rule:evenodd;stroke:none"
             id="path77" />
        </g>
        <g
           id="g79"
           transform="translate(316.6865,110.2432)">
          <path
             d="M 0,0 2.511,170.083 23.054,27.406 Z"
             style="fill:#a28532;fill-opacity:1;fill-rule:evenodd;stroke:none"
             id="path81" />
        </g>
        <g
           id="g83"
           transform="translate(316.6865,110.2432)">
          <path
             d="M 0,0 39.64,140.661 38.458,0 C 37.281,-16.894 -1.511,-17.204 0,0"
             style="fill:#8f752d;fill-opacity:1;fill-rule:evenodd;stroke:none"
             id="path85" />
        </g>
      </g>
    </g>
  </g>
</svg>
