<svg width="20" height="20" viewBox="0 0 20 20" fill="none" xmlns="http://www.w3.org/2000/svg">
<path d="M12.25 9.25058C12.25 9.25058 9.74999 11.2506 9.74999 14.7506M7.81299 6.81358C8.41265 6.21352 8.74951 5.39991 8.74951 4.55158C8.74951 3.70325 8.41265 2.88963 7.81299 2.28958C5.92799 0.404578 1.78099 0.780578 1.78099 0.780578C1.78099 0.780578 1.40399 4.92758 3.28899 6.81258C3.88905 7.41224 4.70266 7.74909 5.55099 7.74909C6.39932 7.74909 7.21293 7.41324 7.81299 6.81358ZM12.553 8.94758C12.8075 9.20247 13.1097 9.40468 13.4424 9.54265C13.7752 9.68062 14.1318 9.75163 14.492 9.75163C14.8522 9.75163 15.2088 9.68062 15.5415 9.54265C15.8743 9.40468 16.1765 9.20247 16.431 8.94758C18.047 7.33158 17.724 3.77758 17.724 3.77758C17.724 3.77758 14.169 3.45358 12.554 5.06958C12.2991 5.32407 12.0969 5.62631 11.9589 5.95903C11.8209 6.29174 11.7499 6.64839 11.7499 7.00858C11.7499 7.36876 11.8209 7.72541 11.9589 8.05813C12.0969 8.39084 12.2981 8.69309 12.553 8.94758Z" stroke="black" stroke-width="1.5" stroke-linecap="round" stroke-linejoin="round"/>
<path d="M7.75 7.25049C7.75 7.25049 9.75 9.75049 9.75 14.7505" stroke="black" stroke-width="1.5" stroke-linecap="round" stroke-linejoin="round"/>
<path d="M18.75 18.7505C17.6162 17.4876 16.2283 16.4784 14.6773 15.7891C13.1263 15.0997 11.4473 14.7458 9.75 14.7505C8.05275 14.7458 6.37365 15.0997 4.82268 15.7891C3.2717 16.4784 1.88385 17.4876 0.75 18.7505" stroke="black" stroke-width="1.5" stroke-linecap="round" stroke-linejoin="round"/>
</svg>
