<svg width="33" height="29" viewBox="0 0 33 29" fill="none" xmlns="http://www.w3.org/2000/svg">
<path d="M15.9748 0.00366803C15.4358 -0.00646271 14.8968 0.00439162 14.3578 0.0362311C12.2045 0.172996 10.076 0.665784 8.38475 1.66438C6.96575 2.50234 6.06375 3.8244 5.7585 5.35704C4.411 5.46558 3.0635 5.57847 2.0735 6.13855C0.7865 6.86796 0 8.09234 0 9.46216C0 10.8168 0.73425 12.0455 2.013 12.7836C2.98925 13.3437 4.1855 13.6433 5.5495 13.754C5.78875 16.1745 6.87775 18.0523 8.39025 19.5111C9.58925 20.6682 11.0165 21.5691 12.4712 22.3767C11.5802 23.8398 11 25.6351 11 27.9146C11 28.2024 11.1449 28.4785 11.4027 28.6821C11.6606 28.8856 12.0103 29 12.375 29H15.125C15.4897 29 15.8394 28.8856 16.0973 28.6821C16.3551 28.4785 16.5 28.2024 16.5 27.9146C16.5 23.7986 18.0593 21.3802 19.8688 19.3027C21.4693 17.464 23.3503 15.8879 24.321 13.7887C26.224 13.7171 28.1133 13.4197 29.711 12.7185C31.5782 11.9 33 10.3674 33 8.37672C33 6.38603 31.5783 4.8534 29.7138 4.03498C28.0748 3.31859 26.0975 3.14275 24.1478 3.07979C23.3668 1.99436 22.11 1.16943 20.5563 0.691834C19.0899 0.258178 17.5404 0.0254424 15.9748 0.00366803ZM8.305 13.8039H13.7968C13.9893 15.94 14.7483 17.6225 15.7355 18.8403C15.0725 19.3615 14.4586 19.9202 13.8985 20.5119C12.606 19.7825 11.4345 19.0248 10.516 18.137C9.35 17.0168 8.5305 15.6969 8.305 13.8039ZM16.555 13.8039H21.1117C20.5837 14.5811 19.8275 15.4082 19.0685 16.2136C18.6487 16.5696 18.2142 16.9213 17.765 17.2686C17.204 16.4307 16.72 15.2801 16.555 13.8039ZM27.5 18.1456C23.375 18.1456 22 19.2311 22 22.4874C26.125 22.4874 27.5 21.402 27.5 18.1456Z" fill="black"/>
</svg>
